<?xml version="1.0" encoding="UTF-8"?>
<!DOCTYPE svg PUBLIC "-//W3C//DTD SVG 1.1//EN" "http://www.w3.org/Graphics/SVG/1.1/DTD/svg11.dtd">
<svg xmlns="http://www.w3.org/2000/svg" version="1.1" width="2111px" height="646px" style="shape-rendering:geometricPrecision; text-rendering:geometricPrecision; image-rendering:optimizeQuality; fill-rule:evenodd; clip-rule:evenodd" xmlns:xlink="http://www.w3.org/1999/xlink">
<g><path style="opacity:0.992" fill="#d5572a" d="M 1563.5,63.5 C 1615.17,62.3943 1650.34,85.7277 1669,133.5C 1678.53,166.839 1673.19,197.506 1653,225.5C 1649.5,230.333 1645.33,234.5 1640.5,238C 1626.34,242.426 1618,237.426 1615.5,223C 1615.52,219.617 1616.35,216.45 1618,213.5C 1638.4,193.216 1644.4,169.216 1636,141.5C 1622.46,110.305 1598.63,95.8047 1564.5,98C 1540.34,102.328 1522.84,115.495 1512,137.5C 1503.48,159.839 1505.48,181.172 1518,201.5C 1522.38,206.211 1526.38,211.211 1530,216.5C 1533.08,227.161 1529.58,234.661 1519.5,239C 1514.23,240.068 1509.23,239.401 1504.5,237C 1476.23,208.422 1467.06,174.589 1477,135.5C 1491.23,93.76 1520.06,69.76 1563.5,63.5 Z"/></g>
<g><path style="opacity:0.992" fill="#d5572b" d="M 1563.5,108.5 C 1599.18,106.237 1621.68,122.237 1631,156.5C 1634.06,176.778 1628.56,194.278 1614.5,209C 1603.08,216.304 1593.92,214.138 1587,202.5C 1585.88,199.558 1585.54,196.558 1586,193.5C 1589.63,187.187 1593.3,180.853 1597,174.5C 1600.43,158.865 1594.6,148.365 1579.5,143C 1563.93,140.364 1553.76,146.531 1549,161.5C 1547.6,168.717 1548.93,175.384 1553,181.5C 1561.93,189.964 1562.76,199.131 1555.5,209C 1544.45,215.998 1534.95,214.165 1527,203.5C 1511.56,181.16 1510.56,158.16 1524,134.5C 1533.88,120.657 1547.04,111.99 1563.5,108.5 Z"/></g>
<g><path style="opacity:0.997" fill="#d5572a" d="M 1849.5,271.5 C 1846.83,271.5 1844.17,271.5 1841.5,271.5C 1841.5,313.5 1841.5,355.5 1841.5,397.5C 1825.76,398.83 1809.93,398.83 1794,397.5C 1793.33,336.5 1793.33,275.5 1794,214.5C 1795.73,200.861 1802.9,191.361 1815.5,186C 1822.62,183.386 1829.95,181.72 1837.5,181C 1848.85,180.372 1860.18,180.539 1871.5,181.5C 1871.5,193.5 1871.5,205.5 1871.5,217.5C 1865.49,217.334 1859.49,217.501 1853.5,218C 1847.9,218.541 1844.07,221.374 1842,226.5C 1841.5,231.155 1841.33,235.821 1841.5,240.5C 1851.5,240.5 1861.5,240.5 1871.5,240.5C 1874.66,258.56 1867.33,268.893 1849.5,271.5 Z"/></g>
<g><path style="opacity:0.576" fill="#698fb9" d="M 595.5,182.5 C 586.833,182.5 578.167,182.5 569.5,182.5C 569.833,205.843 569.5,229.176 568.5,252.5C 567.893,252.376 567.56,252.043 567.5,251.5C 568.498,228.339 568.831,205.006 568.5,181.5C 577.682,181.173 586.682,181.507 595.5,182.5 Z"/></g>
<g><path style="opacity:0.997" fill="#175394" d="M 595.5,182.5 C 606.141,183.571 612.974,189.238 616,199.5C 616.667,245.167 616.667,290.833 616,336.5C 611.139,373.693 589.972,394.527 552.5,399C 466.574,408.742 429.741,370.909 442,285.5C 448.988,251.844 469.488,232.677 503.5,228C 523.747,224.756 542.08,229.089 558.5,241C 562.085,244.078 565.085,247.578 567.5,251.5C 567.56,252.043 567.893,252.376 568.5,252.5C 569.5,229.176 569.833,205.843 569.5,182.5C 578.167,182.5 586.833,182.5 595.5,182.5 Z M 523.5,265.5 C 548.296,263.801 562.796,275.134 567,299.5C 570.357,317.001 568.024,333.668 560,349.5C 548.921,361.997 535.088,366.497 518.5,363C 501.067,358.22 491.567,346.72 490,328.5C 487.611,312.073 489.945,296.407 497,281.5C 503.504,272.17 512.337,266.837 523.5,265.5 Z"/></g>
<g><path style="opacity:0.998" fill="#1a5394" d="M 678.5,197.5 C 678.5,203.167 678.5,208.833 678.5,214.5C 662.833,214.5 647.167,214.5 631.5,214.5C 631.5,203.833 631.5,193.167 631.5,182.5C 642.71,181.108 654.043,181.274 665.5,183C 673.222,184.884 677.555,189.718 678.5,197.5 Z"/></g>
<g><path style="opacity:0.624" fill="#63be89" d="M 903.5,182.5 C 894.5,182.5 885.5,182.5 876.5,182.5C 876.5,254.167 876.5,325.833 876.5,397.5C 892.167,397.5 907.833,397.5 923.5,397.5C 907.675,398.496 891.675,398.83 875.5,398.5C 875.5,326.167 875.5,253.833 875.5,181.5C 885.015,181.173 894.348,181.506 903.5,182.5 Z"/></g>
<g><path style="opacity:0.997" fill="#0a9948" d="M 903.5,182.5 C 913.05,183.551 919.55,188.551 923,197.5C 923.333,229.833 923.667,262.167 924,294.5C 942.805,274.695 961.971,255.195 981.5,236C 1000.83,235.333 1020.17,235.333 1039.5,236C 1017.96,257.043 996.292,277.876 974.5,298.5C 995.667,330.167 1016.83,361.833 1038,393.5C 1039.01,395.025 1039.51,396.692 1039.5,398.5C 1020.5,398.667 1001.5,398.5 982.5,398C 970.459,378.083 958.292,358.25 946,338.5C 942.358,333.345 937.525,330.012 931.5,328.5C 927.967,329.198 925.467,331.198 924,334.5C 923.5,355.497 923.333,376.497 923.5,397.5C 907.833,397.5 892.167,397.5 876.5,397.5C 876.5,325.833 876.5,254.167 876.5,182.5C 885.5,182.5 894.5,182.5 903.5,182.5 Z"/></g>
<g><path style="opacity:0.979" fill="#355e9c" d="M 109.5,209.5 C 116.91,208.045 123.077,210.045 128,215.5C 129.009,217.025 129.509,218.692 129.5,220.5C 127.658,220.723 125.825,221.057 124,221.5C 121.869,220.46 120.036,218.96 118.5,217C 109.652,215.175 105.318,218.841 105.5,228C 106.036,238.17 110.87,241.337 120,237.5C 121.009,235.975 121.509,234.308 121.5,232.5C 130.239,232.547 131.739,235.881 126,242.5C 118.662,247.614 111.162,247.78 103.5,243C 97.4555,236.112 95.9555,228.279 99,219.5C 101.106,214.557 104.606,211.224 109.5,209.5 Z"/></g>
<g><path style="opacity:0.999" fill="#1d5093" d="M 149.5,210.5 C 151.833,210.5 154.167,210.5 156.5,210.5C 156.5,222.167 156.5,233.833 156.5,245.5C 154.393,246.468 152.059,246.802 149.5,246.5C 149.5,234.5 149.5,222.5 149.5,210.5 Z"/></g>
<g><path style="opacity:0.227" fill="#a4bad4" d="M 149.5,210.5 C 151.948,209.527 154.615,209.194 157.5,209.5C 157.828,221.678 157.495,233.678 156.5,245.5C 156.5,233.833 156.5,222.167 156.5,210.5C 154.167,210.5 151.833,210.5 149.5,210.5 Z"/></g>
<g><path style="opacity:0.983" fill="#2c5898" d="M 206.5,245.5 C 206.666,236.494 206.5,227.494 206,218.5C 204.812,219.563 204.312,220.897 204.5,222.5C 203.142,230.266 201.309,237.932 199,245.5C 196.043,247.077 193.376,246.744 191,244.5C 189.126,236.797 187.126,229.131 185,221.5C 184.5,229.827 184.334,238.16 184.5,246.5C 182.167,246.5 179.833,246.5 177.5,246.5C 177.5,234.167 177.5,221.833 177.5,209.5C 181.437,209.207 185.27,209.54 189,210.5C 191,217.833 193,225.167 195,232.5C 197.168,225.161 199.334,217.828 201.5,210.5C 205.107,209.511 208.774,209.177 212.5,209.5C 212.5,221.833 212.5,234.167 212.5,246.5C 210.265,246.795 208.265,246.461 206.5,245.5 Z"/></g>
<g><path style="opacity:0.983" fill="#315b9a" d="M 242.5,209.5 C 245.247,209.187 247.914,209.52 250.5,210.5C 255.77,222.317 260.437,234.317 264.5,246.5C 261.753,246.813 259.086,246.48 256.5,245.5C 255.305,243.249 254.305,240.915 253.5,238.5C 248.869,237.338 244.202,237.172 239.5,238C 238.544,240.877 237.211,243.544 235.5,246C 233.19,246.497 230.857,246.663 228.5,246.5C 232.374,233.88 237.041,221.546 242.5,209.5 Z M 245.5,219.5 C 247.338,222.981 249.004,226.647 250.5,230.5C 247.554,231.655 244.554,231.821 241.5,231C 243.53,227.411 244.863,223.578 245.5,219.5 Z"/></g>
<g><path style="opacity:0.999" fill="#205294" d="M 302.5,245.5 C 302.5,240.167 302.5,234.833 302.5,229.5C 297.5,229.5 292.5,229.5 287.5,229.5C 287.5,234.833 287.5,240.167 287.5,245.5C 285.393,246.468 283.059,246.802 280.5,246.5C 280.5,234.5 280.5,222.5 280.5,210.5C 282.833,210.5 285.167,210.5 287.5,210.5C 287.5,215.167 287.5,219.833 287.5,224.5C 292.5,224.5 297.5,224.5 302.5,224.5C 302.5,219.833 302.5,215.167 302.5,210.5C 304.607,209.532 306.941,209.198 309.5,209.5C 309.5,221.833 309.5,234.167 309.5,246.5C 306.941,246.802 304.607,246.468 302.5,245.5 Z"/></g>
<g><path style="opacity:0.998" fill="#1d5093" d="M 337.5,245.5 C 335.5,246.833 333.5,246.833 331.5,245.5C 331.5,233.833 331.5,222.167 331.5,210.5C 333.5,210.5 335.5,210.5 337.5,210.5C 337.5,222.167 337.5,233.833 337.5,245.5 Z"/></g>
<g><path style="opacity:0.545" fill="#5d85b3" d="M 337.5,245.5 C 337.5,233.833 337.5,222.167 337.5,210.5C 335.5,210.5 333.5,210.5 331.5,210.5C 331.5,222.167 331.5,233.833 331.5,245.5C 330.505,233.678 330.172,221.678 330.5,209.5C 333.167,209.5 335.833,209.5 338.5,209.5C 338.828,221.678 338.495,233.678 337.5,245.5 Z"/></g>
<g><path style="opacity:0.576" fill="#7799c0" d="M 631.5,182.5 C 631.5,193.167 631.5,203.833 631.5,214.5C 647.167,214.5 662.833,214.5 678.5,214.5C 678.5,208.833 678.5,203.167 678.5,197.5C 679.49,203.31 679.823,209.31 679.5,215.5C 663.167,215.5 646.833,215.5 630.5,215.5C 630.172,204.321 630.505,193.321 631.5,182.5 Z"/></g>
<g><path style="opacity:0.566" fill="#5c84b3" d="M 206.5,245.5 C 205.833,237.833 205.167,230.167 204.5,222.5C 204.312,220.897 204.812,219.563 206,218.5C 206.5,227.494 206.666,236.494 206.5,245.5 Z"/></g>
<g><path style="opacity:0.996" fill="#0f994a" d="M 1133.5,221.5 C 1169.96,219.694 1200.12,232.36 1224,259.5C 1227.03,263.698 1229.86,268.032 1232.5,272.5C 1230.17,274 1227.83,275.5 1225.5,277C 1245.64,320.978 1237.64,358.978 1201.5,391C 1171.54,413.05 1138.54,419.05 1102.5,409C 1079.34,401.435 1061.01,387.602 1047.5,367.5C 1049.5,365.833 1051.5,364.167 1053.5,362.5C 1031.45,319.293 1037.78,280.793 1072.5,247C 1090.36,232.399 1110.69,223.899 1133.5,221.5 Z M 1077.5,356.5 C 1075.83,355.833 1074.17,355.167 1072.5,354.5C 1079.05,352.922 1082.71,348.755 1083.5,342C 1071.16,306.032 1081.82,279.365 1115.5,262C 1145.45,251.323 1171.45,257.323 1193.5,280C 1198.07,282.845 1203.07,284.178 1208.5,284C 1195.29,288.358 1191.79,296.858 1198,309.5C 1199.94,347.092 1182.44,369.925 1145.5,378C 1122.79,380.873 1103.12,374.54 1086.5,359C 1083.69,357.451 1080.69,356.618 1077.5,356.5 Z"/></g>
<g><path style="opacity:0.282" fill="#9cb4d1" d="M 280.5,210.5 C 282.948,209.527 285.615,209.194 288.5,209.5C 288.5,214.167 288.5,218.833 288.5,223.5C 292.833,223.5 297.167,223.5 301.5,223.5C 301.182,218.968 301.515,214.634 302.5,210.5C 302.5,215.167 302.5,219.833 302.5,224.5C 297.5,224.5 292.5,224.5 287.5,224.5C 287.5,219.833 287.5,215.167 287.5,210.5C 285.167,210.5 282.833,210.5 280.5,210.5 Z"/></g>
<g><path style="opacity:0.996" fill="#195394" d="M 854.5,276.5 C 854.5,278.5 854.5,280.5 854.5,282.5C 843.833,282.5 833.167,282.5 822.5,282.5C 817.062,282.521 812.062,281.021 807.5,278C 803.383,268.272 796.05,262.939 785.5,262C 774.588,260.693 763.921,261.693 753.5,265C 747.889,269.382 747.056,274.548 751,280.5C 757.067,285.195 763.901,288.362 771.5,290C 787,292.567 802.334,295.9 817.5,300C 830.481,303.073 841.981,308.907 852,317.5C 862.313,332.355 864.313,348.355 858,365.5C 853.225,376.608 845.391,384.775 834.5,390C 815.502,397.973 795.669,401.806 775,401.5C 756.711,401.794 739.211,398.294 722.5,391C 702.782,380.561 693.449,364.228 694.5,342C 710.5,341.333 726.5,341.333 742.5,342C 745.565,357.052 754.899,365.052 770.5,366C 782.075,367.339 793.408,366.339 804.5,363C 813.265,356.673 813.599,350.006 805.5,343C 796.91,338.803 787.91,335.803 778.5,334C 762.468,331.86 746.801,328.194 731.5,323C 700.312,309.107 691.812,286.607 706,255.5C 713.466,244.5 723.633,237 736.5,233C 754.82,227.807 773.486,226.14 792.5,228C 808.135,229.433 822.469,234.433 835.5,243C 846.347,251.663 852.68,262.83 854.5,276.5 Z"/></g>
<g><path style="opacity:0.999" fill="#0d9949" d="M 1527.5,287.5 C 1527.5,324.167 1527.5,360.833 1527.5,397.5C 1517.5,397.5 1507.5,397.5 1497.5,397.5C 1488.5,396.755 1482.67,392.089 1480,383.5C 1479.97,349.794 1479.3,316.127 1478,282.5C 1474.56,274.062 1468.4,268.895 1459.5,267C 1447.34,264.217 1435.68,265.55 1424.5,271C 1420,274.84 1417.16,279.673 1416,285.5C 1415.67,322.833 1415.33,360.167 1415,397.5C 1399.24,398.657 1383.41,398.824 1367.5,398C 1366.67,360.571 1366.17,323.071 1366,285.5C 1361.19,270.236 1350.69,263.569 1334.5,265.5C 1322.99,264.167 1313.49,267.833 1306,276.5C 1305.14,278.087 1304.47,279.754 1304,281.5C 1302.53,320.46 1302.03,359.46 1302.5,398.5C 1286.17,398.5 1269.83,398.5 1253.5,398.5C 1253.33,361.498 1253.5,324.498 1254,287.5C 1258.97,250.569 1280.13,230.736 1317.5,228C 1336.08,226.387 1354.41,227.72 1372.5,232C 1379.11,234.304 1385.44,237.138 1391.5,240.5C 1408.97,231.338 1427.63,227.004 1447.5,227.5C 1467.95,226.863 1486.95,231.696 1504.5,242C 1519.09,253.559 1526.76,268.726 1527.5,287.5 Z"/></g>
<g><path style="opacity:0.996" fill="#d6582b" d="M 1681.5,227.5 C 1693.17,227.333 1704.84,227.5 1716.5,228C 1755.2,231.701 1776.04,252.868 1779,291.5C 1779.67,326.833 1779.67,362.167 1779,397.5C 1768.2,398.83 1757.37,398.663 1746.5,397C 1738.41,395.241 1733.24,390.408 1731,382.5C 1730.96,349.127 1730.3,315.794 1729,282.5C 1725.79,272.628 1718.95,267.128 1708.5,266C 1701.5,265.333 1694.5,265.333 1687.5,266C 1676.33,267.481 1669.5,273.648 1667,284.5C 1666.67,322.167 1666.33,359.833 1666,397.5C 1649.91,398.491 1633.74,398.825 1617.5,398.5C 1617.33,360.832 1617.5,323.165 1618,285.5C 1621.26,258.447 1635.76,240.614 1661.5,232C 1668.26,230.285 1674.93,228.785 1681.5,227.5 Z"/></g>
<g><path style="opacity:0.995" fill="#d5572a" d="M 1945.5,227.5 C 2018.11,220.948 2052.61,253.948 2049,326.5C 2046.02,370.815 2022.52,395.649 1978.5,401C 1907.87,407.367 1874.04,375.2 1877,304.5C 1879.01,260.007 1901.84,234.34 1945.5,227.5 Z M 1953.5,265.5 C 1979.51,262.358 1994.35,273.691 1998,299.5C 1999.05,311.942 1998.38,324.275 1996,336.5C 1988.18,359.794 1972.35,367.961 1948.5,361C 1937.23,355.719 1930.4,346.885 1928,334.5C 1923.99,315.943 1925.66,297.943 1933,280.5C 1937.9,272.653 1944.74,267.653 1953.5,265.5 Z"/></g>
<g><path style="opacity:0.345" fill="#93aecd" d="M 302.5,245.5 C 301.513,240.695 301.179,235.695 301.5,230.5C 297.167,230.5 292.833,230.5 288.5,230.5C 288.821,235.695 288.487,240.695 287.5,245.5C 287.5,240.167 287.5,234.833 287.5,229.5C 292.5,229.5 297.5,229.5 302.5,229.5C 302.5,234.833 302.5,240.167 302.5,245.5 Z"/></g>
<g><path style="opacity:1" fill="#1f5596" d="M 631.5,229.5 C 643.229,229.088 654.896,229.588 666.5,231C 671.91,232.743 675.744,236.243 678,241.5C 679.149,268.12 679.649,294.786 679.5,321.5C 679.498,347.071 679.164,372.571 678.5,398C 662.592,398.824 646.759,398.657 631,397.5C 630.171,341.429 630.338,285.429 631.5,229.5 Z"/></g>
<g><path style="opacity:0.994" fill="#d6582a" d="M 1549.5,229.5 C 1559.84,229.334 1570.17,229.5 1580.5,230C 1589.11,231.28 1594.61,236.114 1597,244.5C 1597.67,295.5 1597.67,346.5 1597,397.5C 1581.24,398.491 1565.41,398.825 1549.5,398.5C 1549.5,342.167 1549.5,285.833 1549.5,229.5 Z"/></g>
<g><path style="opacity:0.514" fill="#e49376" d="M 341.5,258.5 C 260.167,258.5 178.833,258.5 97.5,258.5C 97.1681,297.337 97.5015,336.004 98.5,374.5C 97.9216,377.28 97.2549,379.947 96.5,382.5C 96.5,340.833 96.5,299.167 96.5,257.5C 178.335,257.167 260.002,257.501 341.5,258.5 Z"/></g>
<g><path style="opacity:0.997" fill="#d55528" d="M 341.5,258.5 C 341.5,299.167 341.5,339.833 341.5,380.5C 340.598,377.003 339.931,373.337 339.5,369.5C 328.173,326.003 301.506,296.17 259.5,280C 199.379,263.26 151.212,280.093 115,330.5C 107.891,342.383 102.724,355.05 99.5,368.5C 99.1667,370.5 98.8333,372.5 98.5,374.5C 97.5015,336.004 97.1681,297.337 97.5,258.5C 178.833,258.5 260.167,258.5 341.5,258.5 Z"/></g>
<g><path style="opacity:0.086" fill="#f3d3c8" d="M 1849.5,271.5 C 1847.39,272.468 1845.06,272.802 1842.5,272.5C 1842.83,314.337 1842.5,356.003 1841.5,397.5C 1841.5,355.5 1841.5,313.5 1841.5,271.5C 1844.17,271.5 1846.83,271.5 1849.5,271.5 Z"/></g>
<g><path style="opacity:1" fill="#fcfcfc" d="M 339.5,369.5 C 326.491,375.421 313.658,381.754 301,388.5C 287.377,381.521 273.711,374.521 260,367.5C 245.945,374.444 232.112,381.777 218.5,389.5C 204.672,382.087 191.005,374.42 177.5,366.5C 163.672,373.913 150.005,381.58 136.5,389.5C 124.389,382.044 112.056,375.044 99.5,368.5C 102.724,355.05 107.891,342.383 115,330.5C 151.212,280.093 199.379,263.26 259.5,280C 301.506,296.17 328.173,326.003 339.5,369.5 Z"/></g>
<g><path style="opacity:0.11" fill="#b8cade" d="M 854.5,276.5 C 855.468,278.607 855.802,280.941 855.5,283.5C 844.321,283.828 833.321,283.495 822.5,282.5C 833.167,282.5 843.833,282.5 854.5,282.5C 854.5,280.5 854.5,278.5 854.5,276.5 Z"/></g>
<g><path style="opacity:0.996" fill="#0f994a" d="M 1134.5,285.5 C 1160.41,285.242 1172.91,297.909 1172,323.5C 1165.27,341.123 1152.44,348.956 1133.5,347C 1113.44,342.371 1104.61,329.871 1107,309.5C 1111.41,295.912 1120.58,287.912 1134.5,285.5 Z"/></g>
<g><path style="opacity:1" fill="#0b9949" d="M 198.5,302.5 C 198.5,309.167 198.5,315.833 198.5,322.5C 191.757,318.711 184.924,315.045 178,311.5C 171.273,314.78 164.773,318.446 158.5,322.5C 157.336,315.524 157.169,308.524 158,301.5C 164.456,297.69 170.956,294.024 177.5,290.5C 185.014,293.752 192.014,297.752 198.5,302.5 Z"/></g>
<g><path style="opacity:1" fill="#139849" d="M 238.5,322.5 C 238.5,315.833 238.5,309.167 238.5,302.5C 245.635,298.765 252.635,294.765 259.5,290.5C 266.081,294.04 272.581,297.707 279,301.5C 279.831,308.192 279.664,314.858 278.5,321.5C 272.397,318.032 266.231,314.699 260,311.5C 252.874,315.313 245.707,318.979 238.5,322.5 Z"/></g>
<g><path style="opacity:0.624" fill="#47b478" d="M 1527.5,287.5 C 1528.5,324.33 1528.83,361.33 1528.5,398.5C 1517.99,398.828 1507.65,398.494 1497.5,397.5C 1507.5,397.5 1517.5,397.5 1527.5,397.5C 1527.5,360.833 1527.5,324.167 1527.5,287.5 Z"/></g>
<g><path style="opacity:1" fill="#cc5229" d="M 198.5,302.5 C 205.216,306.276 212.049,309.943 219,313.5C 225.754,310.208 232.254,306.542 238.5,302.5C 238.5,309.167 238.5,315.833 238.5,322.5C 232.18,326.663 225.513,330.33 218.5,333.5C 211.522,330.346 204.855,326.679 198.5,322.5C 198.5,315.833 198.5,309.167 198.5,302.5 Z"/></g>
<g><path style="opacity:1" fill="#099949" d="M 198.5,327.5 C 198.5,334.167 198.5,340.833 198.5,347.5C 191.784,343.724 184.951,340.057 178,336.5C 171.597,340.286 165.097,343.953 158.5,347.5C 157.167,340.5 157.167,333.5 158.5,326.5C 164.773,322.446 171.273,318.78 178,315.5C 184.962,319.394 191.796,323.394 198.5,327.5 Z"/></g>
<g><path style="opacity:1" fill="#139849" d="M 238.5,348.5 C 238.5,341.833 238.5,335.167 238.5,328.5C 244.986,323.752 251.986,319.752 259.5,316.5C 265.955,319.561 272.288,322.894 278.5,326.5C 279.833,333.167 279.833,339.833 278.5,346.5C 272.078,343.541 265.912,340.207 260,336.5C 252.699,340.311 245.532,344.311 238.5,348.5 Z"/></g>
<g><path style="opacity:1" fill="#cc5329" d="M 198.5,327.5 C 205.173,331.177 211.84,334.844 218.5,338.5C 225.184,335.158 231.85,331.825 238.5,328.5C 238.5,335.167 238.5,341.833 238.5,348.5C 231.86,352.154 225.194,355.821 218.5,359.5C 211.77,355.474 205.103,351.474 198.5,347.5C 198.5,340.833 198.5,334.167 198.5,327.5 Z"/></g>
<g><path style="opacity:1" fill="#0b9949" d="M 198.5,353.5 C 198.5,360.167 198.5,366.833 198.5,373.5C 191.827,369.823 185.16,366.156 178.5,362.5C 171.549,365.642 164.883,369.309 158.5,373.5C 157.336,366.524 157.169,359.524 158,352.5C 164.395,348.595 170.895,344.928 177.5,341.5C 185.014,344.752 192.014,348.752 198.5,353.5 Z"/></g>
<g><path style="opacity:1" fill="#139849" d="M 238.5,373.5 C 238.5,366.833 238.5,360.167 238.5,353.5C 245.532,349.311 252.699,345.311 260,341.5C 266.317,345.16 272.651,348.826 279,352.5C 279.667,359.167 279.667,365.833 279,372.5C 272.542,369.021 266.042,365.688 259.5,362.5C 252.641,366.43 245.641,370.096 238.5,373.5 Z"/></g>
<g><path style="opacity:1" fill="#cc5229" d="M 198.5,353.5 C 205.216,357.276 212.049,360.943 219,364.5C 225.43,360.702 231.93,357.035 238.5,353.5C 238.5,360.167 238.5,366.833 238.5,373.5C 232.29,377.526 225.79,381.193 219,384.5C 212.076,380.955 205.243,377.289 198.5,373.5C 198.5,366.833 198.5,360.167 198.5,353.5 Z"/></g>
<g><path style="opacity:0.376" fill="#9dd7b8" d="M 1072.5,354.5 C 1074.17,355.167 1075.83,355.833 1077.5,356.5C 1074.81,356.664 1072.15,356.497 1069.5,356C 1070.53,355.487 1071.53,354.987 1072.5,354.5 Z"/></g>
<g><path style="opacity:1" fill="#135293" d="M 339.5,369.5 C 339.931,373.337 340.598,377.003 341.5,380.5C 341.5,382.833 341.5,385.167 341.5,387.5C 341.739,389.467 341.406,391.301 340.5,393C 327.396,399.968 314.23,406.802 301,413.5C 287.333,406.5 273.667,399.5 260,392.5C 246.229,399.636 232.396,406.636 218.5,413.5C 205.167,406.167 191.833,398.833 178.5,391.5C 165.064,398.968 151.564,406.301 138,413.5C 123.918,406.543 110.085,399.21 96.5,391.5C 96.5,388.5 96.5,385.5 96.5,382.5C 97.2549,379.947 97.9216,377.28 98.5,374.5C 98.8333,372.5 99.1667,370.5 99.5,368.5C 112.056,375.044 124.389,382.044 136.5,389.5C 150.005,381.58 163.672,373.913 177.5,366.5C 191.005,374.42 204.672,382.087 218.5,389.5C 232.112,381.777 245.945,374.444 260,367.5C 273.711,374.521 287.377,381.521 301,388.5C 313.658,381.754 326.491,375.421 339.5,369.5 Z"/></g>
<g><path style="opacity:0.999" fill="#64b9e2" d="M 341.5,387.5 C 342.639,397.82 341.973,408.154 339.5,418.5C 326.649,425.759 313.649,432.759 300.5,439.5C 286.781,432.558 273.281,425.224 260,417.5C 246.333,425.167 232.667,432.833 219,440.5C 205.613,432.944 192.113,425.61 178.5,418.5C 164.221,425.306 150.221,432.639 136.5,440.5C 124.591,433.046 112.258,426.379 99.5,420.5C 97.1359,411.115 96.1359,401.448 96.5,391.5C 110.085,399.21 123.918,406.543 138,413.5C 151.564,406.301 165.064,398.968 178.5,391.5C 191.833,398.833 205.167,406.167 218.5,413.5C 232.396,406.636 246.229,399.636 260,392.5C 273.667,399.5 287.333,406.5 301,413.5C 314.23,406.802 327.396,399.968 340.5,393C 341.406,391.301 341.739,389.467 341.5,387.5 Z"/></g>
<g><path style="opacity:0.937" fill="#272727" d="M 1599.5,409.5 C 1604.51,409.334 1609.51,409.501 1614.5,410C 1623.72,413.939 1626.88,420.772 1624,430.5C 1620.55,437.817 1614.71,441.483 1606.5,441.5C 1592.65,440.486 1586.82,433.153 1589,419.5C 1591.11,414.557 1594.61,411.224 1599.5,409.5 Z"/></g>
<g><path style="opacity:0.937" fill="#272727" d="M 2011.5,409.5 C 2016.51,409.334 2021.51,409.501 2026.5,410C 2035.72,413.939 2038.88,420.772 2036,430.5C 2032.55,437.817 2026.71,441.483 2018.5,441.5C 2004.65,440.486 1998.82,433.153 2001,419.5C 2003.11,414.557 2006.61,411.224 2011.5,409.5 Z"/></g>
<g><path style="opacity:0.999" fill="#135294" d="M 339.5,418.5 C 337.768,429.361 334.435,439.695 329.5,449.5C 319.693,454.237 310.027,459.237 300.5,464.5C 286.781,457.558 273.281,450.224 260,442.5C 246.225,449.971 232.392,457.304 218.5,464.5C 204.846,457.674 191.512,450.341 178.5,442.5C 164.624,449.689 150.791,457.022 137,464.5C 128.35,459.426 119.517,454.759 110.5,450.5C 104.64,441.421 100.974,431.421 99.5,420.5C 112.258,426.379 124.591,433.046 136.5,440.5C 150.221,432.639 164.221,425.306 178.5,418.5C 192.113,425.61 205.613,432.944 219,440.5C 232.667,432.833 246.333,425.167 260,417.5C 273.281,425.224 286.781,432.558 300.5,439.5C 313.649,432.759 326.649,425.759 339.5,418.5 Z"/></g>
<g><path style="opacity:0.956" fill="#272727" d="M 1896.5,418.5 C 1906.5,418.5 1916.5,418.5 1926.5,418.5C 1926.17,430.851 1926.5,443.185 1927.5,455.5C 1937.53,448.864 1948.53,446.697 1960.5,449C 1972.78,451.284 1980.62,458.451 1984,470.5C 1985.06,475.104 1985.73,479.771 1986,484.5C 1986.5,501.163 1986.67,517.83 1986.5,534.5C 1976.17,534.5 1965.83,534.5 1955.5,534.5C 1955.67,517.497 1955.5,500.497 1955,483.5C 1953.08,477.447 1948.92,474.114 1942.5,473.5C 1935.44,474.408 1930.61,478.075 1928,484.5C 1926.56,501.11 1926.06,517.777 1926.5,534.5C 1916.5,534.5 1906.5,534.5 1896.5,534.5C 1896.5,495.833 1896.5,457.167 1896.5,418.5 Z"/></g>
<g><path style="opacity:0.952" fill="#272727" d="M 1528.5,422.5 C 1549.09,421.133 1566.09,428.133 1579.5,443.5C 1573.31,449.844 1566.81,455.844 1560,461.5C 1546.28,447.699 1531.11,445.865 1514.5,456C 1501.17,471.667 1501.17,487.333 1514.5,503C 1526.98,511.225 1539.64,511.558 1552.5,504C 1554.72,501.447 1557.22,499.28 1560,497.5C 1566.81,503.156 1573.31,509.156 1579.5,515.5C 1567.35,529.656 1551.85,536.656 1533,536.5C 1496.25,534.917 1476.42,515.917 1473.5,479.5C 1475.88,445.118 1494.22,426.118 1528.5,422.5 Z"/></g>
<g><path style="opacity:0.955" fill="#272727" d="M 1054.5,425.5 C 1064.83,425.5 1075.17,425.5 1085.5,425.5C 1085.33,439.837 1085.5,454.171 1086,468.5C 1099.53,454.634 1112.7,440.468 1125.5,426C 1137.5,425.333 1149.5,425.333 1161.5,426C 1146.47,441.365 1131.8,457.032 1117.5,473C 1133.03,493.025 1148.36,513.191 1163.5,533.5C 1151.17,534.833 1138.83,534.833 1126.5,533.5C 1116.86,520.69 1107.02,508.024 1097,495.5C 1093.33,499.167 1089.67,502.833 1086,506.5C 1085.5,515.827 1085.33,525.161 1085.5,534.5C 1075.17,534.5 1064.83,534.5 1054.5,534.5C 1054.5,498.167 1054.5,461.833 1054.5,425.5 Z"/></g>
<g><path style="opacity:0.994" fill="#d65929" d="M 88.5,426.5 C 89.8221,426.33 90.9887,426.663 92,427.5C 114.512,495.661 161.679,527.828 233.5,524C 283.744,518.088 318.911,491.922 339,445.5C 341.265,439.538 343.432,433.538 345.5,427.5C 352.879,428.344 360.212,430.178 367.5,433C 368.516,433.519 369.182,434.353 369.5,435.5C 368.034,441.231 366.367,446.898 364.5,452.5C 371.582,455.305 378.582,458.305 385.5,461.5C 343.068,550.552 273.068,586.385 175.5,569C 125.105,555.604 87.2715,526.104 62,480.5C 58.3212,474.148 55.4878,467.481 53.5,460.5C 59.8333,458.5 66.1667,456.5 72.5,454.5C 71.6432,447.407 70.3099,440.407 68.5,433.5C 75.3801,431.541 82.0468,429.208 88.5,426.5 Z"/></g>
<g><path style="opacity:0.953" fill="#272727" d="M 1271.5,430.5 C 1281.5,430.5 1291.5,430.5 1301.5,430.5C 1301.5,437.833 1301.5,445.167 1301.5,452.5C 1308.17,452.5 1314.83,452.5 1321.5,452.5C 1321.5,460.167 1321.5,467.833 1321.5,475.5C 1314.83,475.5 1308.17,475.5 1301.5,475.5C 1301.1,486.231 1301.6,496.898 1303,507.5C 1304.21,509.049 1305.71,510.215 1307.5,511C 1311.65,511.498 1315.65,511.164 1319.5,510C 1322.32,516.299 1324.66,522.799 1326.5,529.5C 1325.81,531.353 1324.48,532.519 1322.5,533C 1310.72,536.515 1299.05,536.182 1287.5,532C 1277.96,527.103 1272.8,519.27 1272,508.5C 1271.5,497.505 1271.33,486.505 1271.5,475.5C 1267.5,475.5 1263.5,475.5 1259.5,475.5C 1259.5,467.833 1259.5,460.167 1259.5,452.5C 1263.5,452.5 1267.5,452.5 1271.5,452.5C 1271.5,445.167 1271.5,437.833 1271.5,430.5 Z"/></g>
<g><path style="opacity:0.994" fill="#65b9e2" d="M 329.5,449.5 C 321.767,464.9 311.1,477.9 297.5,488.5C 285.099,481.457 272.432,474.79 259.5,468.5C 245.5,475.833 231.5,483.167 217.5,490.5C 203.833,483.167 190.167,475.833 176.5,468.5C 164.153,474.671 152.153,481.337 140.5,488.5C 127.611,478.023 117.611,465.356 110.5,450.5C 119.517,454.759 128.35,459.426 137,464.5C 150.791,457.022 164.624,449.689 178.5,442.5C 191.512,450.341 204.846,457.674 218.5,464.5C 232.392,457.304 246.225,449.971 260,442.5C 273.281,450.224 286.781,457.558 300.5,464.5C 310.027,459.237 319.693,454.237 329.5,449.5 Z"/></g>
<g><path style="opacity:0.958" fill="#272727" d="M 1196.5,448.5 C 1214.91,445.43 1230.91,450.097 1244.5,462.5C 1256.05,477.524 1258.22,493.858 1251,511.5C 1241.29,527.502 1226.95,535.502 1208,535.5C 1184.04,535.375 1168.37,524.041 1161,501.5C 1157.63,473.413 1169.46,455.746 1196.5,448.5 Z M 1203.5,472.5 C 1213.88,471.431 1220.71,475.764 1224,485.5C 1226.75,499.35 1221.42,508.017 1208,511.5C 1196.87,509.636 1191.04,502.97 1190.5,491.5C 1190.66,482.144 1194.99,475.81 1203.5,472.5 Z"/></g>
<g><path style="opacity:0.951" fill="#272727" d="M 1359.5,448.5 C 1369.56,448.135 1379.56,448.635 1389.5,450C 1404.86,453.875 1413.36,463.709 1415,479.5C 1415.5,497.83 1415.67,516.164 1415.5,534.5C 1406.17,534.5 1396.83,534.5 1387.5,534.5C 1387.66,531.482 1387.5,528.482 1387,525.5C 1380.68,532.721 1372.68,536.054 1363,535.5C 1339.54,535.056 1329.54,523.389 1333,500.5C 1336.72,491.374 1343.55,486.207 1353.5,485C 1364.13,483.855 1374.8,483.188 1385.5,483C 1383.83,477.333 1380.17,473.667 1374.5,472C 1364.03,470.533 1354.37,472.7 1345.5,478.5C 1341.19,471.893 1338.02,464.893 1336,457.5C 1343.41,453.199 1351.25,450.199 1359.5,448.5 Z M 1371.5,499.5 C 1376.17,499.5 1380.83,499.5 1385.5,499.5C 1384.76,513.212 1377.76,518.045 1364.5,514C 1359.98,510.392 1359.65,506.559 1363.5,502.5C 1366.09,501.083 1368.76,500.083 1371.5,499.5 Z"/></g>
<g><path style="opacity:0.955" fill="#272727" d="M 1683.5,448.5 C 1697.5,445.995 1709.5,449.662 1719.5,459.5C 1730.32,449.618 1742.99,446.118 1757.5,449C 1772.1,452.933 1780.26,462.433 1782,477.5C 1782.5,496.497 1782.67,515.497 1782.5,534.5C 1772.5,534.5 1762.5,534.5 1752.5,534.5C 1752.93,516.786 1752.43,499.119 1751,481.5C 1744.58,471.817 1737.25,471.151 1729,479.5C 1728.14,481.087 1727.47,482.754 1727,484.5C 1726.5,501.163 1726.33,517.83 1726.5,534.5C 1716.17,534.5 1705.83,534.5 1695.5,534.5C 1695.67,517.163 1695.5,499.83 1695,482.5C 1688.99,471.941 1681.65,470.941 1673,479.5C 1671.72,481.717 1670.72,484.051 1670,486.5C 1669.5,502.497 1669.33,518.497 1669.5,534.5C 1659.5,534.5 1649.5,534.5 1639.5,534.5C 1639.5,506.167 1639.5,477.833 1639.5,449.5C 1649.17,449.5 1658.83,449.5 1668.5,449.5C 1668.34,451.857 1668.5,454.19 1669,456.5C 1673.41,452.883 1678.24,450.217 1683.5,448.5 Z"/></g>
<g><path style="opacity:0.951" fill="#272727" d="M 1823.5,448.5 C 1833.56,448.135 1843.56,448.635 1853.5,450C 1868.86,453.875 1877.36,463.709 1879,479.5C 1879.5,497.83 1879.67,516.164 1879.5,534.5C 1870.17,534.5 1860.83,534.5 1851.5,534.5C 1851.66,531.482 1851.5,528.482 1851,525.5C 1844.68,532.721 1836.68,536.054 1827,535.5C 1803.54,535.056 1793.54,523.389 1797,500.5C 1800.72,491.374 1807.55,486.207 1817.5,485C 1828.13,483.855 1838.8,483.188 1849.5,483C 1847.83,477.333 1844.17,473.667 1838.5,472C 1828.03,470.533 1818.37,472.7 1809.5,478.5C 1805.19,471.893 1802.02,464.893 1800,457.5C 1807.41,453.199 1815.25,450.199 1823.5,448.5 Z M 1835.5,499.5 C 1840.17,499.5 1844.83,499.5 1849.5,499.5C 1848.76,513.212 1841.76,518.045 1828.5,514C 1823.98,510.392 1823.65,506.559 1827.5,502.5C 1830.09,501.083 1832.76,500.083 1835.5,499.5 Z"/></g>
<g><path style="opacity:0.96" fill="#272727" d="M 1591.5,449.5 C 1601.5,449.5 1611.5,449.5 1621.5,449.5C 1621.5,477.833 1621.5,506.167 1621.5,534.5C 1611.5,534.5 1601.5,534.5 1591.5,534.5C 1591.5,506.167 1591.5,477.833 1591.5,449.5 Z"/></g>
<g><path style="opacity:0.96" fill="#272727" d="M 2003.5,449.5 C 2013.5,449.5 2023.5,449.5 2033.5,449.5C 2033.5,477.833 2033.5,506.167 2033.5,534.5C 2023.5,534.5 2013.5,534.5 2003.5,534.5C 2003.5,506.167 2003.5,477.833 2003.5,449.5 Z"/></g>
<g><path style="opacity:1" fill="#fae4dc" d="M 84.5,461.5 C 88.3591,461.895 89.6925,463.895 88.5,467.5C 87.8333,466.5 87.1667,465.5 86.5,464.5C 86.1667,464.833 85.8333,465.167 85.5,465.5C 87.2065,468.483 86.7065,470.816 84,472.5C 81.8001,471.133 80.3001,469.133 79.5,466.5C 79.8076,465.692 80.3076,465.025 81,464.5C 81.6667,465.833 82.3333,467.167 83,468.5C 83.2904,466.08 83.7904,463.746 84.5,461.5 Z"/></g>
<g><path style="opacity:1" fill="#fbebe5" d="M 350.5,460.5 C 354.233,462.232 356.899,464.899 358.5,468.5C 357.448,468.649 356.448,468.483 355.5,468C 354.122,466.287 352.455,464.953 350.5,464C 349.316,462.855 349.316,461.688 350.5,460.5 Z"/></g>
<g><path style="opacity:0.999" fill="#135294" d="M 297.5,488.5 C 292.043,494.066 285.71,498.399 278.5,501.5C 271.805,499.32 265.472,496.32 259.5,492.5C 245.844,500.244 232.011,507.577 218,514.5C 204.551,507.441 191.217,500.107 178,492.5C 172.026,495.904 165.859,498.904 159.5,501.5C 152.338,498.331 146.005,493.998 140.5,488.5C 152.153,481.337 164.153,474.671 176.5,468.5C 190.167,475.833 203.833,483.167 217.5,490.5C 231.5,483.167 245.5,475.833 259.5,468.5C 272.432,474.79 285.099,481.457 297.5,488.5 Z"/></g>
<g><path style="opacity:1" fill="#fbebe5" d="M 347.5,467.5 C 350.5,467.167 351.833,468.5 351.5,471.5C 352.833,471.5 354.167,471.5 355.5,471.5C 355.5,472.5 355.5,473.5 355.5,474.5C 353.473,474.338 351.473,474.505 349.5,475C 352.335,476.44 352.835,478.273 351,480.5C 348.624,477.955 346.124,475.622 343.5,473.5C 344.467,471.21 345.8,469.21 347.5,467.5 Z"/></g>
<g><path style="opacity:1" fill="#db6a3e" d="M 347.5,470.5 C 349.973,470.947 350.14,471.947 348,473.5C 346.272,472.648 346.105,471.648 347.5,470.5 Z"/></g>
<g><path style="opacity:1" fill="#fbebe5" d="M 91.5,472.5 C 93.3841,472.712 94.7174,473.712 95.5,475.5C 94.0892,478.91 92.5892,482.243 91,485.5C 90.6102,480.956 88.4435,477.622 84.5,475.5C 86.875,474.34 89.2083,473.34 91.5,472.5 Z"/></g>
<g><path style="opacity:1" fill="#dd7046" d="M 91.5,475.5 C 92.4646,476.721 92.298,478.054 91,479.5C 90.6258,478.584 90.1258,477.75 89.5,477C 90.4158,476.722 91.0825,476.222 91.5,475.5 Z"/></g>
<g><path style="opacity:1" fill="#fae4dc" d="M 340.5,477.5 C 344.87,478.536 347.536,481.203 348.5,485.5C 344.167,484.5 341.5,481.833 340.5,477.5 Z"/></g>
<g><path style="opacity:1" fill="#fbebe6" d="M 98.5,481.5 C 99.4972,481.47 100.164,481.97 100.5,483C 99.1667,485 97.8333,487 96.5,489C 98.0288,490.582 98.5288,492.415 98,494.5C 96.1242,492.578 94.6242,490.411 93.5,488C 94.9852,485.683 96.6519,483.516 98.5,481.5 Z"/></g>
<g><path style="opacity:1" fill="#fbece6" d="M 335.5,484.5 C 342,483.499 344.5,486.165 343,492.5C 341.959,494.585 340.459,496.252 338.5,497.5C 335.828,495.327 333.494,492.827 331.5,490C 332.665,488.008 333.998,486.175 335.5,484.5 Z"/></g>
<g><path style="opacity:1" fill="#da663a" d="M 336.5,486.5 C 341.632,487.772 342.465,490.438 339,494.5C 337.859,492.391 336.359,490.558 334.5,489C 335.381,488.292 336.047,487.458 336.5,486.5 Z"/></g>
<g><path style="opacity:0.976" fill="#69bae2" d="M 278.5,501.5 C 238.815,522.763 199.148,522.763 159.5,501.5C 165.859,498.904 172.026,495.904 178,492.5C 191.217,500.107 204.551,507.441 218,514.5C 232.011,507.577 245.844,500.244 259.5,492.5C 265.472,496.32 271.805,499.32 278.5,501.5 Z"/></g>
<g><path style="opacity:1" fill="#fbede8" d="M 327.5,493.5 C 328.822,493.33 329.989,493.663 331,494.5C 331.953,496.455 333.287,498.122 335,499.5C 335.483,500.448 335.649,501.448 335.5,502.5C 332.753,502.187 330.086,502.52 327.5,503.5C 330.142,508.793 329.309,509.459 325,505.5C 323.249,503.788 322.582,501.788 323,499.5C 325.405,499.036 327.905,498.869 330.5,499C 328.84,497.512 327.84,495.679 327.5,493.5 Z"/></g>
<g><path style="opacity:1" fill="#fbece7" d="M 105.5,489.5 C 106.478,489.811 107.145,490.478 107.5,491.5C 105.219,493.394 104.052,495.728 104,498.5C 104.689,499.357 105.522,500.023 106.5,500.5C 107.941,499.135 109.274,497.635 110.5,496C 111.483,495.409 112.15,495.743 112.5,497C 108.76,505.636 105.093,505.636 101.5,497C 101.927,493.977 103.261,491.477 105.5,489.5 Z"/></g>
<g><path style="opacity:1" fill="#fcf0eb" d="M 114.5,498.5 C 115.989,500.116 116.989,502.116 117.5,504.5C 119.263,503.046 120.597,503.38 121.5,505.5C 120.088,506.806 118.421,507.64 116.5,508C 115.789,509.255 114.956,510.421 114,511.5C 112,509.833 112,508.167 114,506.5C 114.497,503.854 114.664,501.187 114.5,498.5 Z"/></g>
<g><path style="opacity:1" fill="#fbece7" d="M 315.5,505.5 C 319.145,506.989 322.478,508.989 325.5,511.5C 325.192,512.308 324.692,512.975 324,513.5C 323.282,512.549 322.449,512.383 321.5,513C 320.355,515.418 318.855,517.585 317,519.5C 315.274,514.85 314.774,510.184 315.5,505.5 Z"/></g>
<g><path style="opacity:1" fill="#da683d" d="M 317.5,509.5 C 320.595,510.119 320.929,511.119 318.5,512.5C 317.614,511.675 317.281,510.675 317.5,509.5 Z"/></g>
<g><path style="opacity:1" fill="#fbe9e2" d="M 308.5,511.5 C 310.558,513.927 312.391,516.593 314,519.5C 314.749,520.635 314.583,521.635 313.5,522.5C 311.803,521.636 310.637,520.303 310,518.5C 309.209,520.604 307.709,521.937 305.5,522.5C 308.087,527.774 307.253,528.441 303,524.5C 301.589,522.35 300.755,520.016 300.5,517.5C 302.262,517.357 303.929,517.691 305.5,518.5C 306.132,515.939 307.132,513.605 308.5,511.5 Z"/></g>
<g><path style="opacity:1" fill="#fbeae4" d="M 123.5,507.5 C 124.586,507.62 125.253,508.287 125.5,509.5C 124.833,511.5 124.167,513.5 123.5,515.5C 123.527,517.704 124.527,518.538 126.5,518C 127.5,516.333 128.5,514.667 129.5,513C 130.725,512.437 131.725,512.77 132.5,514C 131.368,517.395 129.201,519.895 126,521.5C 123.061,520.23 121.227,518.064 120.5,515C 121.109,512.292 122.109,509.792 123.5,507.5 Z"/></g>
<g><path style="opacity:1" fill="#fae6df" d="M 138.5,518.5 C 139.496,518.414 140.329,518.748 141,519.5C 142,522.167 143,524.833 144,527.5C 144.182,524.119 145.682,523.119 148.5,524.5C 145.033,536.351 142.2,536.351 140,524.5C 139.333,525.833 138.667,527.167 138,528.5C 137.333,529.833 136.667,529.833 136,528.5C 136.492,525.15 137.325,521.817 138.5,518.5 Z"/></g>
<g><path style="opacity:1" fill="#fbeae3" d="M 290.5,523.5 C 291.496,523.414 292.329,523.748 293,524.5C 294.373,527.412 295.873,530.246 297.5,533C 296.464,534.617 295.297,534.784 294,533.5C 292.526,530.244 291.36,526.911 290.5,523.5 Z"/></g>
<g><path style="opacity:1" fill="#fbeee9" d="M 150.5,527.5 C 153.602,527.154 156.435,527.821 159,529.5C 159.667,530.5 159.667,531.5 159,532.5C 153.827,527.771 151.494,528.771 152,535.5C 153.049,536.517 154.216,536.684 155.5,536C 154.398,533.609 155.064,533.109 157.5,534.5C 158.645,535.776 158.645,537.109 157.5,538.5C 152.502,539.873 149.502,537.873 148.5,532.5C 148.902,530.7 149.569,529.033 150.5,527.5 Z"/></g>
<g><path style="opacity:1" fill="#fbeae3" d="M 285.5,526.5 C 286.552,526.351 287.552,526.517 288.5,527C 287.272,527.779 286.272,528.779 285.5,530C 286.5,532.333 287.5,534.667 288.5,537C 288.37,538.059 287.87,538.892 287,539.5C 285.36,537.421 284.194,535.088 283.5,532.5C 281.833,531.833 280.167,531.167 278.5,530.5C 280.765,528.873 283.099,527.539 285.5,526.5 Z"/></g>
<g><path style="opacity:1" fill="#fcf0eb" d="M 271.5,532.5 C 276.208,533.515 279.875,536.182 282.5,540.5C 279.891,540.272 277.224,540.605 274.5,541.5C 274.539,543.359 273.706,544.692 272,545.5C 271.501,541.179 271.334,536.846 271.5,532.5 Z"/></g>
<g><path style="opacity:1" fill="#fbede7" d="M 165.5,532.5 C 166.822,532.33 167.989,532.663 169,533.5C 170.361,537.495 170.527,541.495 169.5,545.5C 168.276,544.234 166.943,543.067 165.5,542C 164.101,541.405 162.768,541.572 161.5,542.5C 160.692,542.192 160.025,541.692 159.5,541C 161.879,538.401 163.879,535.567 165.5,532.5 Z"/></g>
<g><path style="opacity:1" fill="#fcf2ee" d="M 263.5,535.5 C 264.5,535.5 265.5,535.5 266.5,535.5C 267.242,538.973 267.909,542.473 268.5,546C 268.691,547.973 268.024,549.473 266.5,550.5C 266.037,545.607 265.037,540.607 263.5,535.5 Z"/></g>
<g><path style="opacity:1" fill="#fbebe5" d="M 173.5,535.5 C 174.5,535.5 175.5,535.5 176.5,535.5C 176.338,537.527 176.505,539.527 177,541.5C 178.351,539.981 179.851,538.648 181.5,537.5C 182.934,538.936 184.1,540.602 185,542.5C 186.191,540.153 188.024,539.32 190.5,540C 188.208,543.416 186.041,546.916 184,550.5C 182.701,547.994 181.701,545.327 181,542.5C 179.211,544.865 177.044,546.532 174.5,547.5C 174.354,543.481 174.021,539.481 173.5,535.5 Z"/></g>
<g><path style="opacity:1" fill="#d86134" d="M 274.5,536.5 C 276.332,537.14 276.665,538.14 275.5,539.5C 274.614,538.675 274.281,537.675 274.5,536.5 Z"/></g>
<g><path style="opacity:1" fill="#dd734a" d="M 165.5,536.5 C 167.344,537.204 167.844,538.537 167,540.5C 166.25,539.874 165.416,539.374 164.5,539C 165.252,538.329 165.586,537.496 165.5,536.5 Z"/></g>
<g><path style="opacity:1" fill="#fbe8e1" d="M 252.5,538.5 C 253.496,538.414 254.329,538.748 255,539.5C 255.995,543.145 256.828,546.812 257.5,550.5C 254.191,549.758 251.357,548.091 249,545.5C 248.349,547.235 248.515,548.902 249.5,550.5C 248.635,551.583 247.635,551.749 246.5,551C 245.604,547.572 244.938,544.072 244.5,540.5C 248.138,540.738 250.971,542.404 253,545.5C 252.793,543.249 252.627,540.915 252.5,538.5 Z"/></g>
<g><path style="opacity:1" fill="#fbebe5" d="M 193.5,540.5 C 194.978,540.238 196.311,540.571 197.5,541.5C 198.708,545.122 199.708,548.789 200.5,552.5C 198.127,551.706 195.794,550.706 193.5,549.5C 192.476,550.853 191.143,551.52 189.5,551.5C 190.548,547.736 191.881,544.069 193.5,540.5 Z"/></g>
<g><path style="opacity:1" fill="#fbebe5" d="M 238.5,542.5 C 239.209,541.596 240.209,541.263 241.5,541.5C 241.877,544.525 242.044,547.525 242,550.5C 239.833,553.287 236.999,554.12 233.5,553C 231.737,549.757 231.071,546.257 231.5,542.5C 232.5,542.5 233.5,542.5 234.5,542.5C 234.5,545.167 234.5,547.833 234.5,550.5C 236.167,550.5 237.833,550.5 239.5,550.5C 239.806,547.615 239.473,544.948 238.5,542.5 Z"/></g>
<g><path style="opacity:1" fill="#fbe8e1" d="M 220.5,542.5 C 222.833,542.5 225.167,542.5 227.5,542.5C 227.719,543.675 227.386,544.675 226.5,545.5C 221.383,543.449 219.549,545.115 221,550.5C 222.388,551.554 223.888,551.72 225.5,551C 224.027,550.29 223.36,549.124 223.5,547.5C 225.167,547.5 226.833,547.5 228.5,547.5C 229.186,553.666 226.519,555.833 220.5,554C 216.555,550.169 216.555,546.336 220.5,542.5 Z"/></g>
<g><path style="opacity:1" fill="#fbede7" d="M 203.5,541.5 C 204.552,541.351 205.552,541.517 206.5,542C 208,544.167 209.5,546.333 211,548.5C 211.495,546.527 211.662,544.527 211.5,542.5C 212.5,542.5 213.5,542.5 214.5,542.5C 214.5,546.5 214.5,550.5 214.5,554.5C 211.279,553.118 208.779,550.785 207,547.5C 206.505,549.473 206.338,551.473 206.5,553.5C 205.5,553.5 204.5,553.5 203.5,553.5C 203.5,549.5 203.5,545.5 203.5,541.5 Z"/></g>
<g><path style="opacity:1" fill="#db6c42" d="M 194.5,544.5 C 197.3,546.476 196.967,547.309 193.5,547C 194.252,546.329 194.586,545.496 194.5,544.5 Z"/></g>
</svg>
